<svg width="70" height="70" viewBox="0 0 70 70" fill="none" xmlns="http://www.w3.org/2000/svg">
<path fill-rule="evenodd" clip-rule="evenodd" d="M34.0811 0.428804C33.8341 0.674974 33.632 1.08891 33.632 1.34875C33.632 1.94284 34.3894 2.71637 34.9711 2.71637C35.6961 2.71637 36.3761 2.05444 36.3761 1.34875C36.3761 0.905098 36.2436 0.633216 35.894 0.359146C35.2547 -0.142313 34.6297 -0.118242 34.0811 0.428804ZM26.5713 1.40637C14.3573 5.66914 7.18285 17.842 9.40005 30.5402C9.68964 32.199 10.6201 35.2014 11.3293 36.7658C12.4017 39.1312 14.348 41.9731 16.3296 44.067L17.5152 45.3197L15.808 48.3161C14.869 49.964 12.98 53.2816 11.6098 55.6886C10.2397 58.0956 9.1187 60.2534 9.11851 60.4835C9.11833 61.0035 9.88795 61.7973 10.3923 61.7973C10.7245 61.7973 12.1324 61.5149 18.5056 60.1695L20.118 59.829L20.309 60.3117C20.414 60.5772 21.1547 62.6407 21.9553 64.8972C22.7558 67.1538 23.5302 69.1833 23.676 69.4074C24.004 69.9118 24.7381 70.1128 25.3078 69.8542C25.5441 69.7468 26.0606 69.1004 26.4555 68.4178C26.8503 67.7351 28.9256 64.0995 31.0668 60.3385C33.2083 56.5776 34.9813 53.4756 35.0071 53.4452C35.0724 53.3681 35.2576 53.6861 40.0544 62.112C44.5709 70.0462 44.688 70.2056 45.7904 69.9299C46.3974 69.778 46.5042 69.5449 48.3409 64.3622C49.2093 61.9116 49.9426 59.8841 49.9702 59.8564C49.998 59.8289 50.5111 59.9182 51.1104 60.0553C51.7097 60.1923 53.9092 60.6538 55.9978 61.0807C60.1677 61.9332 60.5004 61.9204 60.8599 60.8921C61.0886 60.2386 61.0862 60.2337 57.5092 53.9563C52.8397 45.7619 52.6575 45.4368 52.6575 45.2944C52.6575 45.2215 53.3157 44.4684 54.1205 43.6212C57.3396 40.2313 59.5539 35.9366 60.6382 30.9804C61.1206 28.7754 61.1206 23.1562 60.6382 20.9512C59.4465 15.5041 57.2463 11.4562 53.4006 7.63522C52.2373 6.4795 50.6681 5.11443 49.9135 4.60167C47.4755 2.9454 43.5745 1.19503 41.4257 0.793136C40.8933 0.693574 40.7089 0.751377 40.3193 1.13978C39.7289 1.72822 39.7055 2.52034 40.2635 3.02526C40.49 3.23004 41.2826 3.57815 42.025 3.79879C48.5076 5.7253 54.235 11.0293 56.7067 17.3954C57.9578 20.6179 58.204 21.9813 58.2214 25.7835C58.2386 29.5792 58.0637 30.72 57.0051 33.7156C54.48 40.8615 48.4573 46.4211 41.1021 48.3961C32.0648 50.823 22.4527 47.594 16.6162 40.171C13.0916 35.6881 11.2552 29.4687 11.8309 23.9638C12.5471 17.115 15.847 11.2366 21.1935 7.28511C22.9279 6.0032 26.0306 4.44011 28.292 3.70871C29.924 3.18099 30.4661 2.69831 30.2758 1.94266C29.9388 0.605317 29.1813 0.495543 26.5713 1.40637ZM32.1603 5.652C29.4672 5.99919 26.2225 7.22585 23.7396 8.83507C22.0983 9.89908 19.166 12.7682 18.0909 14.3622C16.2878 17.0358 15.1727 19.8901 14.7054 23.0267C14.3513 25.4035 14.3513 26.5282 14.7054 28.9049C15.9329 37.146 21.98 43.8021 30.1057 45.8568C36.9885 47.5971 44.521 45.5114 49.5507 40.4726C55.8417 34.1699 57.4017 24.7034 53.4427 16.8531C49.4309 8.89762 41.0794 4.50229 32.1603 5.652ZM32.9002 8.30189C31.4228 8.49171 29.0514 9.18081 27.6648 9.82322C25.6072 10.7765 24.0832 11.8418 22.4605 13.4611C15.4725 20.4346 15.4725 31.497 22.4605 38.4705C27.1298 43.1303 33.7952 44.8345 40.1182 42.9851C45.3407 41.4576 49.8782 37.2503 51.7333 32.2151C52.5904 29.889 52.7367 28.9768 52.7367 25.9658C52.7367 22.9549 52.5904 22.0426 51.7333 19.7165C50.506 16.3852 47.9227 13.1863 44.81 11.1431C41.9273 9.25083 39.1961 8.39087 35.7358 8.28602C34.5284 8.24955 33.2524 8.25666 32.9002 8.30189ZM34.1371 13.0646C33.9814 13.2403 33.107 14.8748 32.1941 16.6974C31.1592 18.7636 30.4116 20.0462 30.2081 20.1048C30.0287 20.1564 28.4 20.4126 26.5889 20.6741C23.0498 21.1852 22.3736 21.3661 22.1 21.8759C21.6761 22.6655 21.896 22.9944 24.7895 25.8991L27.6551 28.7756L27.0728 32.294C26.3582 36.6119 26.3536 36.8586 26.9795 37.3493C27.2445 37.5572 27.5868 37.7273 27.7401 37.7273C27.8934 37.7273 29.5999 36.9162 31.5322 35.9248L35.0457 34.1223L37.4945 35.385C41.7866 37.5984 42.1487 37.7547 42.6788 37.6219C42.9466 37.555 43.297 37.3004 43.4574 37.0564C43.7291 36.6432 43.7044 36.3447 43.0963 32.7071L42.4434 28.8013L45.2641 26.016C47.8625 23.4501 48.0848 23.179 48.0845 22.575C48.0839 21.4386 47.7751 21.3099 43.4872 20.6573C41.3714 20.3353 39.615 20.044 39.5837 20.0101C39.5526 19.976 38.7407 18.3794 37.7796 16.4618C36.8186 14.5442 35.8969 12.9237 35.7318 12.8604C35.1743 12.6473 34.4223 12.7435 34.1371 13.0646ZM33.7074 19.7647C33.0343 21.1179 32.3798 22.3108 32.253 22.4158C32.1261 22.5207 30.9232 22.7729 29.5801 22.976C28.2368 23.1792 26.9407 23.3858 26.6999 23.4348C26.3017 23.5161 26.4539 23.7175 28.3921 25.6737C29.5636 26.8559 30.5219 27.9386 30.5217 28.0798C30.5215 28.2209 30.3194 29.5231 30.0726 30.9735C29.8258 32.4239 29.6544 33.641 29.6919 33.6782C29.7292 33.7154 30.9013 33.1648 32.2966 32.4543C33.6916 31.7439 34.9539 31.1649 35.1015 31.1677C35.2492 31.1704 36.476 31.7432 37.828 32.4405C39.18 33.1378 40.3224 33.672 40.3669 33.6277C40.4113 33.5834 40.2723 32.4977 40.0579 31.2153C39.4507 27.5834 39.3417 27.9507 41.7347 25.5654L43.8002 23.5063L43.2439 23.4124C42.9379 23.3606 41.6787 23.1675 40.4459 22.9831C39.0106 22.7685 38.0842 22.5395 37.8699 22.3464C37.6861 22.1804 37.0072 20.9802 36.3612 19.679C35.7155 18.3779 35.1295 17.3112 35.0591 17.3088C34.9888 17.3063 34.3806 18.4115 33.7074 19.7647ZM19.473 47.4456C19.3336 47.6668 18.1289 49.776 16.7962 52.1328C15.4633 54.4897 14.1325 56.8168 13.8389 57.3041C13.5451 57.7913 13.351 58.2362 13.4075 58.2926C13.4642 58.3489 15.2403 58.0404 17.3547 57.6068C21.4776 56.7614 21.7987 56.7625 22.2434 57.6252C22.3665 57.8639 22.9691 59.4869 23.5825 61.2318C24.1961 62.9769 24.7776 64.6137 24.8751 64.8693C25.0368 65.2933 25.3872 64.747 28.8848 58.6161C30.9928 54.9213 32.7173 51.869 32.7173 51.8332C32.7173 51.7975 32.4499 51.7669 32.1228 51.7652C31.7957 51.7638 30.7494 51.5985 29.7976 51.3983C26.7111 50.749 23.9034 49.6272 21.2369 47.9778L19.7263 47.0435L19.473 47.4456ZM49.3623 47.6917C46.162 49.7295 41.8499 51.3338 38.6171 51.6894C37.9883 51.7587 37.4737 51.8854 37.4737 51.9713C37.4737 52.0572 37.7093 52.5183 37.9974 52.9963C38.2854 53.4742 39.9893 56.4423 41.7839 59.592C43.5783 62.7417 45.0733 65.2444 45.1059 65.1536C47.5947 58.2255 47.8907 57.4933 48.3376 57.1598C48.8091 56.8077 48.8135 56.8083 52.8374 57.6328C55.0526 58.0867 56.8651 58.441 56.8651 58.4202C56.8651 58.3735 50.4716 47.158 50.41 47.0965C50.3858 47.0723 49.9142 47.3402 49.3623 47.6917Z" fill="white"/>
</svg>
